<svg width="154" height="112" viewBox="0 0 154 112" fill="none" xmlns="http://www.w3.org/2000/svg">
<path d="M0 24.8946H67.4831L72.6742 35.2767H5.19101L0 24.8946ZM6.92135 45.6587H74.4045L79.5955 56.0407H12.1124L6.92135 45.6587ZM119.393 101.029C125.138 101.029 129.775 96.3922 129.775 90.6474C129.775 84.9027 125.138 80.2654 119.393 80.2654C113.649 80.2654 109.011 84.9027 109.011 90.6474C109.011 96.3922 113.649 101.029 119.393 101.029ZM129.775 38.7373H112.472V56.0407H143.341L129.775 38.7373ZM50.1798 101.029C55.9245 101.029 60.5618 96.3922 60.5618 90.6474C60.5618 84.9027 55.9245 80.2654 50.1798 80.2654C44.4351 80.2654 39.7978 84.9027 39.7978 90.6474C39.7978 96.3922 44.4351 101.029 50.1798 101.029ZM133.236 28.3553L154 56.0407V90.6474H140.157C140.157 102.137 130.883 111.411 119.393 111.411C107.904 111.411 98.6292 102.137 98.6292 90.6474H70.9438C70.9438 102.137 61.6 111.411 50.1798 111.411C38.6903 111.411 29.4157 102.137 29.4157 90.6474H15.573V66.4227H29.4157V76.8047H34.676C38.4827 72.5827 44.0198 69.8834 50.1798 69.8834C56.3398 69.8834 61.8769 72.5827 65.6836 76.8047H98.6292V14.5126H15.573C15.573 6.82992 21.733 0.669922 29.4157 0.669922H112.472V28.3553H133.236Z" fill="#D71F20"/>
</svg>
