<svg width="49" height="42" viewBox="0 0 49 42" fill="none" xmlns="http://www.w3.org/2000/svg">
<path d="M14.0439 28.8668C10.3668 30.7408 7.37415 32.7045 5.24707 34.2485C9.34283 38.7803 15.4723 41.6625 22.3231 41.6625C33.8976 41.6625 43.4157 33.4435 44.5386 22.9177C32.042 21.3684 21.0672 25.2905 14.0439 28.8668Z" fill="#DD0C0D"/>
<path d="M1.0098 14.6169C0.353572 16.5806 0 18.6683 0 20.8326C0 24.7283 1.14557 28.3733 3.13971 31.4904L29.369 7.05507L1.0098 14.6169Z" fill="#DD0C0D"/>
<path d="M35.3483 5.71425L14.2246 25.3934C18.425 23.4007 22.7131 21.8989 26.9956 20.9223C32.9242 19.571 38.8501 19.2331 44.626 19.9114C44.329 13.54 40.9658 7.91021 35.8772 4.27843C35.9451 4.79574 35.7613 5.3289 35.3483 5.71425Z" fill="#DD0C0D"/>
<path d="M33.5296 2.82941C33.5381 2.82677 33.5466 2.82677 33.5523 2.82413C30.2542 1.02936 26.4186 0 22.3229 0C13.7693 0 6.34149 4.48958 2.59082 11.0801L33.5296 2.82941Z" fill="#DD0C0D"/>
<path d="M48.6967 21.825L45.8059 19.9484L45.5117 23.2212L48.6967 21.825Z" fill="#DD0C0D"/>
</svg>
