<svg width="200" height="73" viewBox="0 0 200 73" fill="none" xmlns="http://www.w3.org/2000/svg">
<g clip-path="url(#clip0_704_6060)">
<path d="M16.1201 35.1687C11.8997 37.4496 8.4666 39.8436 6.02832 41.7262C10.7271 47.248 17.7626 50.7573 25.6235 50.7573C38.9071 50.7573 49.8328 40.7451 51.1196 27.9237C36.7778 26.0328 24.18 30.8125 16.1201 35.1687Z" fill="#DD0C0D"/>
<path d="M1.15988 17.8067C0.406381 20.2007 0 22.7415 0 25.3787C0 30.1249 1.3165 34.565 3.60663 38.3637L33.7084 8.59521L1.15988 17.8067Z" fill="#DD0C0D"/>
<path d="M40.5703 6.96423L16.3271 30.9383C21.1487 28.5107 26.0718 26.6785 30.9822 25.4919C37.7849 23.8442 44.5875 23.4333 51.2166 24.2593C50.878 16.4985 47.0131 9.6392 41.1756 5.21167C41.2561 5.84477 41.0486 6.49046 40.5703 6.96423Z" fill="#DD0C0D"/>
<path d="M38.4831 3.44643C38.4916 3.44224 38.5 3.44224 38.5085 3.43805C34.7241 1.25363 30.3216 0 25.6228 0C15.8062 0 7.28068 5.46733 2.97559 13.4964L38.4831 3.44643Z" fill="#DD0C0D"/>
<path d="M55.8905 26.5905L52.576 24.3054L52.2373 28.2927L55.8905 26.5905Z" fill="#DD0C0D"/>
</g>
<path d="M74.709 38.8891V33.3628L90.6434 13.6872H76.5112V8.55444H98.7132V13.3108L82.0945 33.7791H99.3519V38.8891H74.709Z" fill="black"/>
<path d="M103.178 11.2463C103.178 9.76349 104.381 8.55444 105.87 8.55444H106.303C107.786 8.55444 108.995 9.75779 108.995 11.2463C108.995 12.7291 107.792 13.9381 106.303 13.9381H105.87C104.387 13.9324 103.178 12.7291 103.178 11.2463ZM103.178 33.8475V16.9151H108.995V38.8891H108.219C105.436 38.8891 103.178 36.6306 103.178 33.8475Z" fill="black"/>
<path d="M114.419 40.3375L121.064 41.1417C121.172 41.9116 121.429 42.4477 121.828 42.7328C122.381 43.1491 123.248 43.3545 124.434 43.3545C125.951 43.3545 127.092 43.1263 127.85 42.6701C128.358 42.3678 128.746 41.8774 129.008 41.1987C129.185 40.7139 129.276 39.8243 129.276 38.5297V35.3245C127.537 37.697 125.347 38.8833 122.695 38.8833C119.74 38.8833 117.402 37.6343 115.68 35.1363C114.328 33.1631 113.655 30.7108 113.655 27.768C113.655 24.0838 114.539 21.2722 116.313 19.3274C118.087 17.3827 120.288 16.4075 122.923 16.4075C125.643 16.4075 127.884 17.5994 129.647 19.989V16.9036H135.087V36.6248C135.087 39.2197 134.871 41.1588 134.449 42.4363C134.021 43.7195 133.422 44.7289 132.646 45.4589C131.871 46.1889 130.844 46.7649 129.555 47.1755C128.267 47.5918 126.635 47.7971 124.662 47.7971C120.938 47.7971 118.298 47.1584 116.735 45.8809C115.178 44.6034 114.397 42.9895 114.397 41.0276C114.397 40.8451 114.402 40.6113 114.419 40.3375ZM119.609 27.4429C119.609 29.7755 120.06 31.4807 120.967 32.5643C121.868 33.6478 122.985 34.1896 124.309 34.1896C125.729 34.1896 126.932 33.6364 127.907 32.5243C128.888 31.4122 129.379 29.7698 129.379 27.5912C129.379 25.3157 128.911 23.6276 127.97 22.5212C127.029 21.4148 125.848 20.8673 124.411 20.8673C123.02 20.8673 121.868 21.4091 120.967 22.4926C120.06 23.5705 119.609 25.2244 119.609 27.4429Z" fill="black"/>
<path d="M145.187 23.6161L139.912 22.6636C140.505 20.5421 141.526 18.9681 142.975 17.9472C144.423 16.9264 146.573 16.4131 149.431 16.4131C152.025 16.4131 153.953 16.7211 155.225 17.3313C156.491 17.9472 157.386 18.7228 157.905 19.6695C158.424 20.6162 158.681 22.35 158.681 24.8707L158.618 31.6574C158.618 33.5907 158.709 35.0108 158.898 35.929C159.086 36.8472 159.434 37.8281 159.941 38.8775H154.187C154.033 38.4897 153.85 37.9193 153.628 37.1608C153.531 36.8187 153.463 36.5905 153.423 36.4765C152.43 37.4403 151.37 38.1646 150.235 38.6493C149.105 39.1341 147.896 39.3736 146.613 39.3736C144.349 39.3736 142.57 38.7577 141.264 37.5315C139.963 36.3054 139.308 34.7541 139.308 32.8778C139.308 31.6346 139.604 30.5282 140.197 29.5587C140.79 28.5891 141.623 27.842 142.69 27.3231C143.756 26.8041 145.302 26.3535 147.315 25.9657C150.029 25.4581 151.917 24.9791 152.961 24.54V23.9582C152.961 22.8404 152.687 22.042 152.134 21.5687C151.581 21.0953 150.543 20.8558 149.009 20.8558C147.976 20.8558 147.166 21.0611 146.59 21.466C146.014 21.8823 145.547 22.5952 145.187 23.6161ZM152.966 28.3382C152.219 28.5891 151.045 28.8857 149.431 29.2279C147.817 29.5758 146.762 29.9122 146.265 30.243C145.507 30.7791 145.125 31.4635 145.125 32.2904C145.125 33.106 145.427 33.8074 146.037 34.4006C146.642 34.9937 147.417 35.2902 148.353 35.2902C149.402 35.2902 150.4 34.9481 151.352 34.258C152.054 33.7333 152.516 33.0946 152.738 32.336C152.892 31.8399 152.966 30.8932 152.966 29.5016V28.3382Z" fill="black"/>
<path d="M169.973 38.889H164.156V16.9151H169.557V20.0404C170.481 18.5633 171.314 17.5938 172.049 17.1204C172.785 16.6528 173.623 16.4189 174.564 16.4189C175.887 16.4189 177.165 16.7839 178.391 17.5139L176.589 22.584C175.608 21.9509 174.701 21.6315 173.857 21.6315C173.042 21.6315 172.352 21.854 171.787 22.3045C171.222 22.7551 170.778 23.5649 170.452 24.734C170.127 25.9088 169.968 28.3612 169.968 32.1024V38.889H169.973Z" fill="black"/>
<path d="M185.246 23.6161L179.971 22.6636C180.564 20.5421 181.585 18.9681 183.033 17.9472C184.482 16.9264 186.632 16.4131 189.489 16.4131C192.084 16.4131 194.012 16.7211 195.283 17.3313C196.55 17.9472 197.445 18.7228 197.964 19.6695C198.483 20.6162 198.74 22.35 198.74 24.8707L198.677 31.6574C198.677 33.5907 198.768 35.0108 198.956 35.929C199.144 36.8472 199.492 37.8281 200 38.8775H194.246C194.092 38.4897 193.909 37.9193 193.687 37.1608C193.59 36.8187 193.521 36.5905 193.481 36.4765C192.489 37.4403 191.428 38.1646 190.293 38.6493C189.164 39.1341 187.955 39.3736 186.672 39.3736C184.408 39.3736 182.628 38.7577 181.322 37.5315C180.022 36.3054 179.366 34.7541 179.366 32.8778C179.366 31.6346 179.663 30.5282 180.256 29.5587C180.849 28.5891 181.682 27.842 182.748 27.3231C183.815 26.8041 185.36 26.3535 187.373 25.9657C190.088 25.4581 191.976 24.9791 193.019 24.54V23.9582C193.019 22.8404 192.746 22.042 192.192 21.5687C191.639 21.0953 190.601 20.8558 189.067 20.8558C188.035 20.8558 187.225 21.0611 186.649 21.466C186.073 21.8823 185.605 22.5952 185.246 23.6161ZM193.025 28.3382C192.278 28.5891 191.103 28.8857 189.489 29.2279C187.875 29.5758 186.82 29.9122 186.324 30.243C185.565 30.7791 185.183 31.4635 185.183 32.2904C185.183 33.106 185.486 33.8074 186.096 34.4006C186.7 34.9937 187.476 35.2902 188.411 35.2902C189.461 35.2902 190.459 34.9481 191.411 34.258C192.113 33.7333 192.575 33.0946 192.797 32.336C192.951 31.8399 193.025 30.8932 193.025 29.5016V28.3382Z" fill="black"/>
<path d="M86.54 73.0603V59.0603H88.08V71.6803H96.42V73.0603H86.54ZM103.862 73.2803C102.848 73.2803 101.902 73.1003 101.022 72.7403C100.155 72.367 99.3884 71.8536 98.7217 71.2003C98.0684 70.5336 97.5551 69.767 97.1817 68.9003C96.8217 68.0203 96.6417 67.0736 96.6417 66.0603C96.6417 65.047 96.8217 64.107 97.1817 63.2403C97.5551 62.3603 98.0684 61.5936 98.7217 60.9403C99.3884 60.2736 100.155 59.7603 101.022 59.4003C101.902 59.027 102.848 58.8403 103.862 58.8403C104.862 58.8403 105.795 59.027 106.662 59.4003C107.542 59.7603 108.308 60.2736 108.962 60.9403C109.628 61.5936 110.142 62.3603 110.502 63.2403C110.875 64.107 111.062 65.047 111.062 66.0603C111.062 67.0736 110.875 68.0203 110.502 68.9003C110.142 69.767 109.628 70.5336 108.962 71.2003C108.308 71.8536 107.542 72.367 106.662 72.7403C105.795 73.1003 104.862 73.2803 103.862 73.2803ZM103.862 71.8603C104.662 71.8603 105.402 71.7136 106.082 71.4203C106.762 71.127 107.355 70.7203 107.862 70.2003C108.382 69.667 108.782 69.047 109.062 68.3403C109.355 67.6336 109.502 66.8736 109.502 66.0603C109.502 65.2336 109.355 64.4736 109.062 63.7803C108.782 63.0736 108.382 62.4603 107.862 61.9403C107.355 61.407 106.762 60.9936 106.082 60.7003C105.402 60.407 104.662 60.2603 103.862 60.2603C103.062 60.2603 102.315 60.407 101.622 60.7003C100.942 60.9936 100.342 61.407 99.8217 61.9403C99.3151 62.4603 98.9151 63.0736 98.6217 63.7803C98.3417 64.4736 98.2017 65.227 98.2017 66.0403C98.2017 66.867 98.3417 67.6336 98.6217 68.3403C98.9151 69.047 99.3151 69.667 99.8217 70.2003C100.342 70.7203 100.942 71.127 101.622 71.4203C102.315 71.7136 103.062 71.8603 103.862 71.8603ZM120.054 73.2803C119.04 73.2803 118.094 73.0936 117.214 72.7203C116.347 72.347 115.58 71.8336 114.914 71.1803C114.26 70.5136 113.747 69.747 113.374 68.8803C113 68.0003 112.814 67.0603 112.814 66.0603C112.814 65.0603 112.994 64.127 113.354 63.2603C113.727 62.3803 114.24 61.6136 114.894 60.9603C115.56 60.2936 116.327 59.7736 117.194 59.4003C118.074 59.027 119.02 58.8403 120.034 58.8403C121.114 58.8403 122.134 59.0403 123.094 59.4403C124.054 59.8403 124.874 60.407 125.554 61.1403L124.514 62.2003C123.98 61.587 123.314 61.1136 122.514 60.7803C121.727 60.4336 120.9 60.2603 120.034 60.2603C119.234 60.2603 118.487 60.407 117.794 60.7003C117.114 60.9936 116.514 61.407 115.994 61.9403C115.487 62.4603 115.087 63.0736 114.794 63.7803C114.514 64.4736 114.374 65.2336 114.374 66.0603C114.374 66.8736 114.514 67.6336 114.794 68.3403C115.087 69.047 115.487 69.667 115.994 70.2003C116.514 70.7203 117.114 71.127 117.794 71.4203C118.487 71.7136 119.234 71.8603 120.034 71.8603C120.98 71.8603 121.834 71.6536 122.594 71.2403C123.367 70.827 123.987 70.2603 124.454 69.5403C124.934 68.8203 125.214 68.007 125.294 67.1003H120.274V65.7403H126.854V66.3603C126.854 67.3336 126.68 68.2403 126.334 69.0803C125.987 69.9203 125.507 70.6536 124.894 71.2803C124.28 71.907 123.56 72.4003 122.734 72.7603C121.907 73.107 121.014 73.2803 120.054 73.2803ZM129.235 73.0603V59.0603H130.775V73.0603H129.235ZM138.404 73.2603C137.298 73.2603 136.238 73.0403 135.224 72.6003C134.211 72.147 133.318 71.5003 132.544 70.6603L133.564 69.6003C134.284 70.3736 135.051 70.9536 135.864 71.3403C136.691 71.727 137.558 71.9203 138.464 71.9203C139.198 71.9203 139.844 71.807 140.404 71.5803C140.978 71.3403 141.424 71.0136 141.744 70.6003C142.064 70.1736 142.224 69.6936 142.224 69.1603C142.224 68.4403 141.971 67.887 141.464 67.5003C140.971 67.1136 140.151 66.827 139.004 66.6403L136.984 66.3203C135.638 66.0936 134.644 65.6936 134.004 65.1203C133.364 64.547 133.044 63.767 133.044 62.7803C133.044 62.007 133.251 61.327 133.664 60.7403C134.078 60.1536 134.651 59.7003 135.384 59.3803C136.131 59.047 136.991 58.8803 137.964 58.8803C138.951 58.8803 139.918 59.0403 140.864 59.3603C141.824 59.6803 142.698 60.1403 143.484 60.7403L142.604 61.9403C141.071 60.7803 139.504 60.2003 137.904 60.2003C137.238 60.2003 136.651 60.307 136.144 60.5203C135.638 60.7203 135.244 61.007 134.964 61.3803C134.684 61.7403 134.544 62.167 134.544 62.6603C134.544 63.3136 134.764 63.8136 135.204 64.1603C135.644 64.507 136.371 64.7603 137.384 64.9203L139.384 65.2403C140.918 65.4936 142.031 65.927 142.724 66.5403C143.418 67.1403 143.764 67.987 143.764 69.0803C143.764 69.8936 143.538 70.6203 143.084 71.2603C142.631 71.887 141.998 72.3803 141.184 72.7403C140.384 73.087 139.458 73.2603 138.404 73.2603ZM149.423 73.0603V60.4403H144.363V59.0603H156.023V60.4403H150.963V73.0603H149.423ZM157.907 73.0603V59.0603H159.447V73.0603H157.907ZM169.136 73.2803C168.123 73.2803 167.176 73.1003 166.296 72.7403C165.416 72.367 164.643 71.8536 163.976 71.2003C163.309 70.5336 162.789 69.767 162.416 68.9003C162.056 68.0203 161.876 67.0736 161.876 66.0603C161.876 65.047 162.056 64.107 162.416 63.2403C162.789 62.3603 163.309 61.5936 163.976 60.9403C164.643 60.2736 165.416 59.7603 166.296 59.4003C167.176 59.027 168.123 58.8403 169.136 58.8403C169.869 58.8403 170.569 58.9336 171.236 59.1203C171.916 59.2936 172.543 59.5536 173.116 59.9003C173.703 60.2336 174.223 60.647 174.676 61.1403L173.656 62.2203C173.109 61.5936 172.436 61.1136 171.636 60.7803C170.836 60.4336 170.003 60.2603 169.136 60.2603C168.323 60.2603 167.569 60.407 166.876 60.7003C166.183 60.9936 165.576 61.407 165.056 61.9403C164.549 62.4603 164.149 63.0736 163.856 63.7803C163.576 64.4736 163.436 65.2336 163.436 66.0603C163.436 66.8736 163.576 67.6336 163.856 68.3403C164.149 69.047 164.556 69.667 165.076 70.2003C165.596 70.7203 166.203 71.127 166.896 71.4203C167.603 71.7136 168.363 71.8603 169.176 71.8603C170.043 71.8603 170.869 71.6936 171.656 71.3603C172.443 71.0136 173.103 70.5403 173.636 69.9403L174.636 70.9803C174.169 71.4603 173.643 71.8736 173.056 72.2203C172.483 72.567 171.863 72.8336 171.196 73.0203C170.529 73.1936 169.843 73.2803 169.136 73.2803ZM181.705 73.2603C180.598 73.2603 179.538 73.0403 178.525 72.6003C177.512 72.147 176.618 71.5003 175.845 70.6603L176.865 69.6003C177.585 70.3736 178.352 70.9536 179.165 71.3403C179.992 71.727 180.858 71.9203 181.765 71.9203C182.498 71.9203 183.145 71.807 183.705 71.5803C184.278 71.3403 184.725 71.0136 185.045 70.6003C185.365 70.1736 185.525 69.6936 185.525 69.1603C185.525 68.4403 185.272 67.887 184.765 67.5003C184.272 67.1136 183.452 66.827 182.305 66.6403L180.285 66.3203C178.938 66.0936 177.945 65.6936 177.305 65.1203C176.665 64.547 176.345 63.767 176.345 62.7803C176.345 62.007 176.552 61.327 176.965 60.7403C177.378 60.1536 177.952 59.7003 178.685 59.3803C179.432 59.047 180.292 58.8803 181.265 58.8803C182.252 58.8803 183.218 59.0403 184.165 59.3603C185.125 59.6803 185.998 60.1403 186.785 60.7403L185.905 61.9403C184.372 60.7803 182.805 60.2003 181.205 60.2003C180.538 60.2003 179.952 60.307 179.445 60.5203C178.938 60.7203 178.545 61.007 178.265 61.3803C177.985 61.7403 177.845 62.167 177.845 62.6603C177.845 63.3136 178.065 63.8136 178.505 64.1603C178.945 64.507 179.672 64.7603 180.685 64.9203L182.685 65.2403C184.218 65.4936 185.332 65.927 186.025 66.5403C186.718 67.1403 187.065 67.987 187.065 69.0803C187.065 69.8936 186.838 70.6203 186.385 71.2603C185.932 71.887 185.298 72.3803 184.485 72.7403C183.685 73.087 182.758 73.2603 181.705 73.2603Z" fill="black"/>
<defs>
<clipPath id="clip0_704_6060">
<rect width="55.89" height="50.7573" fill="white"/>
</clipPath>
</defs>
</svg>
