<svg width="172" height="110" viewBox="0 0 172 110" fill="none" xmlns="http://www.w3.org/2000/svg">
<path d="M14.3333 67.5588C16.3241 67.5588 17.7176 66.7625 18.5139 65.1699C19.3102 63.5773 19.3102 61.9847 18.5139 60.3921C17.7176 58.7995 16.3241 58.0033 14.3333 58.0033C12.3426 58.0033 10.9491 58.7995 10.1528 60.3921C9.35648 61.9847 9.35648 63.5773 10.1528 65.1699C10.9491 66.7625 12.3426 67.5588 14.3333 67.5588ZM124.297 63.2289C123.799 62.582 122.841 61.3377 121.423 59.4963C120.004 57.6549 118.972 56.3111 118.325 55.4651C117.678 54.619 116.732 53.3997 115.488 51.8071C114.244 50.2145 113.186 48.8956 112.315 47.8505C111.444 46.8053 110.436 45.6358 109.292 44.3418C108.147 43.0478 107.027 41.8285 105.932 40.6838L96.6007 51.1352C92.4699 55.8134 87.2815 58.1028 81.0356 58.0033C74.7896 57.9037 69.6759 55.4651 65.6944 50.6873C62.8576 47.2533 61.4517 43.3215 61.4766 38.8921C61.5014 34.4627 62.9572 30.5559 65.8438 27.1717L79.0573 11.7932C77.9624 11.2457 76.6933 10.8351 75.25 10.5614C73.8067 10.2877 72.6247 10.1384 71.704 10.1135C70.7833 10.0886 69.3773 10.1011 67.4861 10.1508C65.5949 10.2006 64.3756 10.2255 63.8281 10.2255C59.2494 10.2255 55.3177 11.8678 52.033 15.1526L40.2378 26.9477H28.6667V67.5588C28.9155 67.5588 29.4381 67.5464 30.2344 67.5215C31.0307 67.4966 31.5781 67.4966 31.8767 67.5215C32.1753 67.5464 32.6606 67.5961 33.3325 67.6708C34.0043 67.7454 34.5145 67.8574 34.8628 68.0067C35.2112 68.156 35.6467 68.3675 36.1693 68.6413C36.6918 68.915 37.1522 69.2509 37.5503 69.6491L59.7222 91.4477C65.4456 96.972 71.0943 99.7342 76.6684 99.7342C80.5503 99.7342 83.6609 98.5646 86 96.2255C88.8368 97.2208 91.6363 97.0218 94.3984 95.6283C97.1606 94.2347 98.9647 92.1196 99.8108 89.2828C103.494 89.5814 106.654 88.4865 109.292 85.998C110.287 85.1022 111.183 83.97 111.979 82.6013C112.775 81.2327 113.124 79.9761 113.024 78.8314C113.522 79.3291 114.592 79.5779 116.234 79.5779C118.374 79.5779 120.291 79.0553 121.983 78.0102C123.675 76.9651 124.907 75.6462 125.678 74.0536C126.449 72.461 126.748 70.6818 126.574 68.7159C126.4 66.7501 125.641 64.9211 124.297 63.2289ZM136.167 67.5588H143.333V29.3366H136.391L124.67 15.8991C121.385 12.1167 117.18 10.2255 112.054 10.2255H99.5868C95.1574 10.2255 91.5243 11.8927 88.6875 15.2272L73.0851 33.3678C71.6916 35.0102 70.9948 36.8765 70.9948 38.9668C70.9948 41.0571 71.6667 42.9234 73.0104 44.5658C75.1505 47.104 77.8877 48.3979 81.2222 48.4477C84.5567 48.4975 87.3189 47.2781 89.5087 44.7897L103.917 28.5154C105.161 27.3707 106.492 26.8357 107.911 26.9104C109.329 26.985 110.499 27.6569 111.419 28.926C112.34 30.1951 112.551 31.6011 112.054 33.1439C112.85 34.0895 114.244 35.6572 116.234 37.847C118.225 40.0368 119.718 41.729 120.714 42.9234C122.157 44.7151 124.21 47.3403 126.872 50.7993C129.535 54.2582 131.14 56.3609 131.688 57.1074C134.275 60.3921 135.769 63.8759 136.167 67.5588ZM157.667 67.5588C159.657 67.5588 161.051 66.7625 161.847 65.1699C162.644 63.5773 162.644 61.9847 161.847 60.3921C161.051 58.7995 159.657 58.0033 157.667 58.0033C155.676 58.0033 154.282 58.7995 153.486 60.3921C152.69 61.9847 152.69 63.5773 153.486 65.1699C154.282 66.7625 155.676 67.5588 157.667 67.5588ZM172 24.5588V72.3366C172 73.6306 171.527 74.7504 170.582 75.696C169.636 76.6416 168.516 77.1144 167.222 77.1144H134.823C133.479 80.3493 131.439 82.9995 128.701 85.0649C125.964 87.1303 122.854 88.4118 119.37 88.9095C117.727 91.2984 115.724 93.3265 113.36 94.9937C110.996 96.6609 108.446 97.7932 105.708 98.3904C103.618 101.028 101.018 103.056 97.9071 104.475C94.7966 105.893 91.599 106.503 88.3142 106.304C85.3281 107.996 82.1927 108.979 78.908 109.252C75.6233 109.526 72.4505 109.178 69.3898 108.207C66.329 107.237 63.4175 105.905 60.6554 104.213C57.8932 102.521 55.3177 100.506 52.9288 98.1665L31.5035 77.1144H4.77778C3.4838 77.1144 2.364 76.6416 1.4184 75.696C0.472801 74.7504 0 73.6306 0 72.3366V22.1699C0 20.8759 0.472801 19.7561 1.4184 18.8105C2.364 17.8649 3.4838 17.3921 4.77778 17.3921H36.2066C36.9034 16.6954 38.0729 15.5009 39.7153 13.8088C41.3576 12.1167 42.5396 10.9222 43.2613 10.2255C43.9829 9.52872 45.0778 8.53335 46.546 7.23937C48.0142 5.94538 49.2708 5.01223 50.316 4.43989C51.3611 3.86755 52.6302 3.233 54.1233 2.53624C55.6163 1.83948 57.1591 1.35424 58.7517 1.08051C60.3443 0.806785 62.0365 0.669922 63.8281 0.669922H72.5625C77.4896 0.669922 81.9936 2.06344 86.0747 4.85048C90.1557 2.06344 94.6597 0.669922 99.5868 0.669922H112.054C113.796 0.669922 115.463 0.819227 117.056 1.11784C118.648 1.41645 120.054 1.77727 121.273 2.2003C122.493 2.62334 123.774 3.28277 125.118 4.1786C126.462 5.07444 127.569 5.84585 128.44 6.49284C129.311 7.13983 130.381 8.12276 131.65 9.44162C132.919 10.7605 133.89 11.8056 134.562 12.577C135.234 13.3485 136.254 14.5429 137.622 16.1604C138.991 17.7778 140.024 18.9847 140.72 19.781H167.222C168.516 19.781 169.636 20.2538 170.582 21.1994C171.527 22.145 172 23.2648 172 24.5588Z" fill="#D71F20"/>
</svg>
