<svg width="100" height="123" viewBox="0 0 100 123" fill="none" xmlns="http://www.w3.org/2000/svg">
<path d="M97.9854 16.331L52.0543 0.948872C51.5001 0.762905 50.7567 0.669922 50.0132 0.669922C49.2698 0.669922 48.5263 0.762905 47.9721 0.948872L2.04108 16.331C0.919163 16.7029 0 17.9781 0 19.147V83.2259C0 84.3948 0.770475 85.9357 1.70315 86.6662L48.2966 122.345C48.7697 122.704 49.3779 122.89 49.9997 122.89C50.6215 122.89 51.2433 122.704 51.7029 122.345L98.2963 86.6662C99.229 85.9489 99.9994 84.4081 99.9994 83.2259V19.147C100.026 17.9781 99.1073 16.7162 97.9854 16.331ZM74.6819 39.0189L45.9446 77.8992C45.7426 78.171 45.4781 78.392 45.1728 78.5444C44.8674 78.6968 44.5298 78.7762 44.1874 78.7762C43.8449 78.7762 43.5073 78.6968 43.2019 78.5444C42.8966 78.392 42.6322 78.171 42.4301 77.8992L25.3445 54.7862C24.8309 54.0822 25.3445 53.0993 26.2232 53.0993H33.6846C34.374 53.0993 35.0363 53.4313 35.4418 53.976L44.1874 65.7981L64.5846 38.1954C64.9902 37.6507 65.639 37.3187 66.3419 37.3187H73.8033C74.6819 37.3319 75.1956 38.3149 74.6819 39.0189Z" fill="#D71F20"/>
</svg>
