<svg width="36" height="35" viewBox="0 0 36 35" fill="none" xmlns="http://www.w3.org/2000/svg">
<path d="M14.5295 33.5203C6.71022 32.0728 0.830078 25.4579 0.830078 17.5468C0.830078 8.57591 8.38535 1.276 17.7517 1.276C27.1112 1.276 34.6726 8.57546 34.6732 17.5458L14.5295 33.5203ZM14.5295 33.5203V22.8957H10.6055H10.1055V22.3957V17.5479V17.0479H10.6055H14.5295V13.851C14.5295 11.6448 15.2139 9.87279 16.4786 8.65376C17.7404 7.43752 19.5212 6.82815 21.6073 6.82815C22.5861 6.82815 23.5818 6.91191 24.3286 6.99472C24.703 7.03623 25.017 7.07777 25.238 7.10901C25.3486 7.12463 25.4359 7.1377 25.496 7.14691L25.5652 7.1577L25.5836 7.16063L25.5885 7.16143L25.5899 7.16166L25.5903 7.16173L25.5905 7.16175L25.5097 7.65519L25.5905 7.16177L26.0097 7.23045V7.65519V11.7819V12.2819H25.5097H23.3091C22.332 12.2819 21.7743 12.571 21.4536 12.9286C21.1234 13.2969 20.9738 13.8163 20.9738 14.4023V17.0468M14.5295 33.5203L20.9738 17.0468M20.9738 17.0468H25.305H25.8914L25.7987 17.6259L25.0224 22.4737L24.9549 22.8946H24.5286H20.9738V33.5191C28.7869 32.0716 34.6727 25.4571 34.6732 17.5468L20.9738 17.0468Z" fill="white" stroke="white"/>
</svg>
