<svg width="23" height="22" viewBox="0 0 23 22" fill="none" xmlns="http://www.w3.org/2000/svg">
<path d="M17.4158 4.01158C17.1574 4.01158 16.9048 4.08535 16.6899 4.22356C16.475 4.36177 16.3076 4.55821 16.2087 4.78805C16.1098 5.01788 16.0839 5.27079 16.1343 5.51478C16.1847 5.75877 16.3092 5.98289 16.4919 6.1588C16.6746 6.33471 16.9075 6.4545 17.1609 6.50304C17.4144 6.55157 17.6771 6.52666 17.9158 6.43146C18.1546 6.33626 18.3587 6.17504 18.5022 5.9682C18.6458 5.76135 18.7224 5.51816 18.7224 5.26939C18.7224 4.9358 18.5848 4.61587 18.3397 4.37999C18.0947 4.1441 17.7624 4.01158 17.4158 4.01158ZM22.4245 6.54817C22.4034 5.67849 22.2341 4.81805 21.9237 4.0011C21.6468 3.3021 21.2159 2.66916 20.6606 2.14583C20.1214 1.60856 19.4624 1.19636 18.7333 0.940422C17.8869 0.632426 16.9921 0.465817 16.0874 0.447778C14.9333 0.384888 14.563 0.384888 11.6014 0.384888C8.63971 0.384888 8.2695 0.384888 7.11532 0.447778C6.21065 0.465817 5.31583 0.632426 4.46942 0.940422C3.74171 1.19895 3.08324 1.61079 2.54216 2.14583C1.98404 2.66486 1.55585 3.29928 1.28998 4.0011C0.970034 4.81589 0.796961 5.67729 0.778221 6.54817C0.712891 7.65924 0.712891 8.01562 0.712891 10.8667C0.712891 13.7177 0.712891 14.0741 0.778221 15.1851C0.796961 16.056 0.970034 16.9174 1.28998 17.7322C1.55585 18.434 1.98404 19.0685 2.54216 19.5875C3.08324 20.1225 3.74171 20.5344 4.46942 20.7929C5.31583 21.1009 6.21065 21.2675 7.11532 21.2855C8.2695 21.3484 8.63971 21.3484 11.6014 21.3484C14.563 21.3484 14.9333 21.3484 16.0874 21.2855C16.9921 21.2675 17.8869 21.1009 18.7333 20.7929C19.4624 20.537 20.1214 20.1248 20.6606 19.5875C21.2183 19.0661 21.6496 18.4326 21.9237 17.7322C22.2341 16.9153 22.4034 16.0548 22.4245 15.1851C22.4245 14.0741 22.4899 13.7177 22.4899 10.8667C22.4899 8.01562 22.4899 7.65924 22.4245 6.54817ZM20.4646 15.0594C20.4567 15.7247 20.3315 16.384 20.0944 17.009C19.9205 17.4651 19.6413 17.8773 19.2778 18.2144C18.9246 18.5608 18.4973 18.8291 18.0256 19.0005C17.3763 19.2288 16.6915 19.3493 16.0003 19.3569C14.9115 19.4093 14.5086 19.4198 11.6449 19.4198C8.78126 19.4198 8.37838 19.4198 7.28954 19.3569C6.57187 19.3698 5.85726 19.2635 5.17717 19.0424C4.72615 18.8622 4.31846 18.5946 3.97944 18.2563C3.61803 17.9196 3.34229 17.5071 3.17369 17.0509C2.90785 16.4169 2.76041 15.7427 2.73815 15.0594C2.73815 14.0112 2.67282 13.6234 2.67282 10.8667C2.67282 8.10995 2.67282 7.72213 2.73815 6.67395C2.74303 5.99374 2.87202 5.31965 3.11925 4.68241C3.31093 4.23999 3.60516 3.84561 3.97944 3.52942C4.31024 3.16902 4.71908 2.88279 5.17717 2.69088C5.84088 2.46032 6.5404 2.33982 7.24598 2.3345C8.33483 2.3345 8.7377 2.27161 11.6014 2.27161C14.465 2.27161 14.8679 2.27161 15.9568 2.3345C16.6479 2.34213 17.3328 2.46263 17.982 2.69088C18.4768 2.86765 18.9209 3.15506 19.2778 3.52942C19.6346 3.8514 19.9134 4.24504 20.0944 4.68241C20.3364 5.32068 20.4616 5.9945 20.4646 6.67395C20.519 7.72213 20.5299 8.10995 20.5299 10.8667C20.5299 13.6234 20.519 14.0112 20.4646 15.0594ZM11.6014 5.48951C10.4971 5.49158 9.41819 5.80871 8.50105 6.40081C7.5839 6.99292 6.86965 7.83344 6.44855 8.81617C6.02744 9.79889 5.91837 10.8797 6.13513 11.9221C6.35189 12.9645 6.88474 13.9216 7.66636 14.6726C8.44798 15.4235 9.44329 15.9346 10.5265 16.1412C11.6098 16.3479 12.7323 16.2408 13.7524 15.8335C14.7724 15.4262 15.6441 14.737 16.2574 13.853C16.8707 12.9689 17.1981 11.9297 17.1981 10.8667C17.1995 10.1592 17.0556 9.45854 16.7748 8.80485C16.4939 8.15115 16.0815 7.55736 15.5614 7.05764C15.0412 6.55791 14.4236 6.1621 13.744 5.89298C13.0644 5.62387 12.3362 5.48675 11.6014 5.48951ZM11.6014 14.3571C10.8842 14.3571 10.1832 14.1524 9.58695 13.7688C8.99068 13.3853 8.52595 12.8402 8.25151 12.2024C7.97708 11.5646 7.90527 10.8628 8.04518 10.1857C8.18508 9.50863 8.53041 8.8867 9.0375 8.39855C9.54459 7.91041 10.1907 7.57798 10.894 7.4433C11.5974 7.30862 12.3264 7.37774 12.9889 7.64192C13.6515 7.9061 14.2178 8.35348 14.6162 8.92748C15.0146 9.50148 15.2272 10.1763 15.2272 10.8667C15.2272 11.325 15.1335 11.7789 14.9512 12.2024C14.769 12.6259 14.5019 13.0106 14.1652 13.3348C13.8286 13.6589 13.4288 13.916 12.9889 14.0914C12.549 14.2668 12.0775 14.3571 11.6014 14.3571Z" fill="#1B1919"/>
</svg>
