<svg width="37" height="34" viewBox="0 0 37 34" fill="none" xmlns="http://www.w3.org/2000/svg">
<path d="M17.9479 13.5868C16.439 13.4499 14.9706 13.0613 13.6175 12.4401C12.0816 11.735 10.7305 10.7468 9.65001 9.54246L9.21525 9.05784L8.85922 9.60291C8.41543 10.2823 8.16714 11.069 8.16714 11.9271V11.9275C8.16771 12.6888 8.37589 13.4355 8.76949 14.1008C8.82845 14.2004 8.89128 14.2978 8.95779 14.3926C8.9284 14.3785 8.89929 14.3641 8.87048 14.3494L8.14287 13.9774V14.7946V14.8454V14.8458H8.61666L8.41526 15.2397C8.50116 15.2837 8.58894 15.3253 8.67843 15.3647C8.78358 16.1165 9.11942 16.8305 9.6532 17.4232C10.0484 17.8619 10.5374 18.2178 11.0862 18.4722C10.8238 18.473 10.5589 18.4523 10.2777 18.4151L9.95174 18.3719C10.0501 18.4464 10.1513 18.5172 10.2553 18.5842C10.3625 18.6534 10.4725 18.7186 10.585 18.7797L17.9479 13.5868ZM17.9479 13.5868C17.6975 10.7553 20.1526 8.62561 22.9273 8.62561C24.2507 8.62561 25.4606 9.09321 26.3606 9.87074C27.2344 9.69709 28.0705 9.38967 28.8232 8.98835L29.9635 8.38043L29.5294 9.59753C29.3769 10.0252 29.1581 10.4241 28.884 10.7843L17.9479 13.5868ZM9.14692 15.0146C9.30673 15.0733 9.47176 15.1241 9.64092 15.1664L9.14692 15.0146ZM9.14692 15.0146C9.1441 14.9588 9.14275 14.9029 9.14287 14.8469V14.8458V14.7946H8.64287L8.61669 14.8458L9.14692 15.0146ZM9.88512 14.7101C9.61693 14.4515 9.38622 14.1613 9.19982 13.8462C8.8506 13.2559 8.66764 12.5967 8.66714 11.9271L9.88512 14.7101ZM1.09473 17.1823C1.09473 8.44388 8.93587 1.276 18.7132 1.276C28.4905 1.276 36.3316 8.44388 36.3316 17.1823C36.3316 25.9206 28.4905 33.0885 18.7132 33.0885C8.93587 33.0885 1.09473 25.9206 1.09473 17.1823Z" fill="white" stroke="white"/>
</svg>
