<svg width="36" height="35" viewBox="0 0 36 35" fill="none" xmlns="http://www.w3.org/2000/svg">
<path d="M17.9089 0.046875C8.28709 0.046875 0.487305 7.71145 0.487305 17.1664C0.487305 26.6214 8.28709 34.286 17.9089 34.286C27.5307 34.286 35.3305 26.6214 35.3305 17.1664C35.3305 7.71145 27.5307 0.046875 17.9089 0.046875ZM13.6442 24.2621H10.1164V13.1059H13.6442V24.2621ZM11.8585 11.7363C10.7443 11.7363 10.0238 10.9606 10.0238 10.0012C10.0238 9.02216 10.766 8.26962 11.9039 8.26962C13.0417 8.26962 13.7386 9.02216 13.7604 10.0012C13.7604 10.9606 13.0417 11.7363 11.8585 11.7363ZM26.5289 24.2621H23.0011V18.0795C23.0011 16.6404 22.4893 15.6631 21.2135 15.6631C20.239 15.6631 19.6601 16.3247 19.4042 16.9614C19.3099 17.1878 19.2863 17.5088 19.2863 17.828V24.2604H15.7566V16.6636C15.7566 15.2708 15.7112 14.1063 15.664 13.1041H18.7291L18.8907 14.6538H18.9614C19.426 13.9262 20.5639 12.8527 22.4675 12.8527C24.7886 12.8527 26.5289 14.3809 26.5289 17.6658V24.2621Z" fill="white"/>
</svg>
